<?xml version="1.0" encoding="UTF-8"?>
<svg width="180px" height="37px" viewBox="0 0 180 37" version="1.1" xmlns="http://www.w3.org/2000/svg" xmlns:xlink="http://www.w3.org/1999/xlink">
    <g stroke="none" stroke-width="1" fill="none" fill-rule="evenodd">
        <g transform="translate(-108.000000, -144.000000)" fill="#000000" fill-rule="nonzero">
            <g transform="translate(108.000000, 144.000000)">
                <path d="M119.616813,0.0688256028 L119.616813,36.3433867 L110.783797,36.3433867 L110.783797,22.9461298 L96.2738331,22.9461298 L96.2738331,36.3433867 L87.5257692,36.3433867 L87.5257692,0.0688256028 L96.2738331,0.0688256028 L96.2738331,14.8070042 L110.783797,14.8070042 L110.783797,0.0688256028 L119.616813,0.0688256028 Z M41.5634454,0.0688256028 L66.505689,0.0688256028 L66.505689,7.51723548 L50.3963817,7.51723548 L50.3963817,14.893882 L65.283022,14.893882 L65.283022,22.3422919 L50.3963817,22.3422919 L50.3963817,29.0626417 L67.007256,29.0626417 L67.007256,36.3433867 L41.5634454,36.3433867 L41.5634454,0.0688256028 Z M167.694044,7.7299331 L167.694044,36.3433867 L158.69496,36.3433867 L158.69496,7.7299331 L146.607405,7.7299331 L146.607405,0.0688256028 L179.867268,0.0688256028 L179.867268,7.7299331 L167.694044,7.7299331 Z M138.948659,16.435917 C138.948659,21.8896421 135.798944,24.3007737 129.070056,24.3007737 L124.46097,24.3007737 L124.46097,36.3433867 L115.713906,36.3433867 L115.713906,0.0688256028 L129.070056,0.0688256028 C135.713275,0.0688256028 138.948659,2.56550981 138.948659,7.81271645 L138.948659,16.435917 Z M124.46097,16.6920123 L129.155725,16.6920123 C130.292951,16.6920123 130.120612,14.2980033 130.120612,11.8172947 C130.120612,9.33658606 130.292951,7.61042031 129.155725,7.61042031 L124.46097,7.61042031 L124.46097,16.6920123 Z M24.4900328,0.0688256028 L24.4900328,22.1730745 C24.4900328,27.0247389 26.9323059,28.5104811 31.3485476,28.5104811 C35.7648962,28.5104811 38.2071622,27.0247389 38.2071622,22.1730745 L38.2071622,0.0688256028 L46.9552261,0.0688256028 L46.9552261,22.1730745 C46.9552261,31.7447699 41.1997873,36.8783363 31.3485476,36.8783363 C21.4973149,36.8783363 15.7418761,31.7447699 15.7418761,22.1730745 L15.7418761,0.0688256028 L24.4900328,0.0688256028 Z M79.445867,6.88572698 C75.3653794,6.88572698 73.1087534,9.34847256 73.1087534,14.7201264 L73.1087534,21.6921858 C73.1087534,27.0638396 75.3653794,29.4828368 79.445867,29.4828368 C83.5264615,29.4828368 85.8679876,27.0638396 85.8679876,21.6921858 L85.8679876,14.7201264 C85.8679876,9.34847256 83.5264615,6.88572698 79.445867,6.88572698 Z M79.445867,36.8783363 C70.0353479,36.8783363 64.2799091,31.3872054 64.2799091,21.6921858 L64.2799091,14.7201264 C64.2799091,5.02508524 70.0353479,0 79.445867,0 C88.8563861,0 94.6968249,5.02508524 94.6968249,14.7201264 L94.6968249,21.6921858 C94.6968249,31.3872054 88.8563861,36.8783363 79.445867,36.8783363 Z M7.49045627,0.0688256028 C7.57603781,7.91144772 7.22633823,14.2376399 7.22633823,22.0804075 C7.22633823,27.0247389 8.1042791,28.5104811 9.52386018,28.5104811 C10.6839782,28.5104811 11.3917072,27.3595413 11.3917072,25.1911152 C11.3917072,24.0402682 11.0591482,22.5372922 11.0591482,20.9211835 C11.0591482,18.5794201 12.9027254,17.1353568 17.2334182,17.1353568 L17.2334182,17.3870075 C17.2334182,28.2535632 15.7418761,36.8783363 8.71920046,36.8783363 C2.12866827,36.8783363 -0.827761695,31.7856583 -0.827761695,22.5372922 C-0.827761695,14.1499729 -1.09187974,7.7299331 -1.26421912,0.0688256028 L7.49045627,0.0688256028 Z" transform="translate(89.520000, 18.440000) scale(-1, 1) rotate(-180.000000) translate(-89.520000, -18.440000) "></path>
            </g>
        </g>
    </g>
</svg>